<svg xmlns="http://www.w3.org/2000/svg" viewBox="0 0 408 190" role="img" aria-label="Tarif Evim logosu">
  <rect width="408" height="190" fill="none" />
  <path d="M10 50 C80 -8 180 -8 290 40 C338 62 372 62 398 48 C384 70 354 92 304 92 C226 92 156 56 102 46 C68 40 34 40 10 50 Z" fill="#050505"/>
  <path d="M10 140 C44 100 84 96 136 116 C198 140 256 186 320 180 C348 176 374 166 398 150 C356 206 274 214 206 182 C146 154 96 120 40 122 C28 122 18 128 10 140 Z" fill="#050505"/>
  <circle cx="204" cy="95" r="52" fill="#f79560" stroke="#050505" stroke-width="1.2"/>
  <path d="M186 50 C176 78 176 114 186 142 C192 150 218 150 224 142 C234 114 234 78 224 50 C218 42 192 42 186 50 Z" fill="#050505"/>
  <path d="M204 58 C196 70 196 120 204 132" fill="none" stroke="#f79560" stroke-width="2.5" stroke-linecap="round"/>
  <path d="M212 64 C204 76 204 116 212 126" fill="none" stroke="#f79560" stroke-width="2.5" stroke-linecap="round"/>
  <path d="M196 66 C188 78 188 114 196 124" fill="none" stroke="#f79560" stroke-width="2.5" stroke-linecap="round"/>
  <text x="262" y="35" transform="rotate(18 262 35)" fill="#d8d8d8" font-size="50" font-style="italic" font-family="cursive">tarif</text>
  <text x="130" y="170" transform="rotate(-18 130 170)" fill="#d8d8d8" font-size="50" font-style="italic" font-family="cursive">evim</text>
</svg>